<svg width="69" height="64" viewBox="0 0 69 64" fill="none" xmlns="http://www.w3.org/2000/svg">
<path fill-rule="evenodd" clip-rule="evenodd" d="M41.2874 51.9611C56.5927 51.9611 69 40.3292 69 25.9805C69 11.6319 56.5927 0 41.2874 0C25.9822 0 13.5748 11.6319 13.5748 25.9805C13.5748 31.9843 15.7471 37.5124 19.3949 41.9119L0.733177 59.4072L5.63211 64L24.2938 46.5046C28.9866 49.9246 34.8833 51.9611 41.2874 51.9611ZM20.503 25.9806C20.503 36.7421 29.8085 45.466 41.2874 45.466C52.7664 45.466 62.0719 36.7421 62.0719 25.9806C62.0719 15.2191 52.7664 6.4952 41.2874 6.4952C29.8085 6.4952 20.503 15.2191 20.503 25.9806Z" fill="#15AE08"/>
</svg>
