<svg width="54" height="68" viewBox="0 0 54 68" fill="none" xmlns="http://www.w3.org/2000/svg">
<mask id="path-1-inside-1" fill="white">
<path fill-rule="evenodd" clip-rule="evenodd" d="M34.2279 19.5026C39.2332 17.4878 44.9995 14.4214 44.9995 10.987C44.9995 4.91905 36.3404 0 26.9996 0C17.6587 0 8.99963 4.91905 8.99963 10.987C8.99963 14.2663 14.2569 17.2101 19.089 19.2232C19.1379 12.9599 22.5081 7.90529 26.6585 7.90529C30.8393 7.90529 34.2285 13.0343 34.2285 19.3612C34.2285 19.4084 34.2283 19.4555 34.2279 19.5026Z"/>
</mask>
<path fill-rule="evenodd" clip-rule="evenodd" d="M34.2279 19.5026C39.2332 17.4878 44.9995 14.4214 44.9995 10.987C44.9995 4.91905 36.3404 0 26.9996 0C17.6587 0 8.99963 4.91905 8.99963 10.987C8.99963 14.2663 14.2569 17.2101 19.089 19.2232C19.1379 12.9599 22.5081 7.90529 26.6585 7.90529C30.8393 7.90529 34.2285 13.0343 34.2285 19.3612C34.2285 19.4084 34.2283 19.4555 34.2279 19.5026Z" fill="#15AE08"/>
<path d="M34.2279 19.5026L33.228 19.4946L33.2161 20.9879L34.6014 20.4302L34.2279 19.5026ZM19.089 19.2232L18.7045 20.1463L20.0774 20.7183L20.089 19.231L19.089 19.2232ZM43.9995 10.987C43.9995 11.5549 43.7622 12.1808 43.2286 12.8722C42.6939 13.5652 41.9044 14.2666 40.917 14.9581C38.9422 16.3411 36.3315 17.5779 33.8545 18.5749L34.6014 20.4302C37.1297 19.4125 39.9046 18.1088 42.0643 16.5963C43.1442 15.84 44.1091 15.0049 44.812 14.0941C45.5161 13.1817 45.9995 12.1363 45.9995 10.987H43.9995ZM26.9996 1C31.5082 1 35.8277 2.19003 38.99 4.07678C42.1836 5.98225 43.9995 8.46114 43.9995 10.987H45.9995C45.9995 7.4449 43.4859 4.4303 40.0147 2.35926C36.5122 0.269491 31.8318 -1 26.9996 -1V1ZM9.99963 10.987C9.99963 8.46114 11.8155 5.98225 15.0092 4.07678C18.1714 2.19003 22.491 1 26.9996 1V-1C22.1673 -1 17.4869 0.269491 13.9844 2.35926C10.5133 4.4303 7.99963 7.4449 7.99963 10.987H9.99963ZM19.4736 18.3002C17.0846 17.3048 14.6459 16.1011 12.8211 14.7717C10.9284 13.3929 9.99963 12.1001 9.99963 10.987H7.99963C7.99963 13.1532 9.69947 14.972 11.6435 16.3882C13.6553 17.8539 16.2614 19.1285 18.7045 20.1463L19.4736 18.3002ZM20.089 19.231C20.1121 16.2662 20.9228 13.6334 22.1672 11.7711C23.4163 9.90157 25.0225 8.90529 26.6585 8.90529V6.90529C24.1442 6.90529 21.99 8.4363 20.5042 10.6599C19.0136 12.8908 18.1148 15.9169 18.0891 19.2154L20.089 19.231ZM26.6585 8.90529C28.3064 8.90529 29.9244 9.91641 31.177 11.812C32.4244 13.6997 33.2285 16.3659 33.2285 19.3612H35.2285C35.2285 16.0296 34.338 12.9679 32.8456 10.7094C31.3584 8.45867 29.1914 6.90529 26.6585 6.90529V8.90529ZM33.2285 19.3612C33.2285 19.4057 33.2283 19.4502 33.228 19.4946L35.2279 19.5106C35.2283 19.4609 35.2285 19.4111 35.2285 19.3612H33.2285Z" fill="#15AE08" mask="url(#path-1-inside-1)"/>
<path d="M33.2675 20.9923C33.2675 23.9946 32.3119 26.7011 30.9739 28.6386C29.6034 30.623 27.9817 31.6094 26.7278 31.6094C25.474 31.6094 23.8523 30.623 22.4818 28.6386C21.1438 26.7011 20.1882 23.9946 20.1882 20.9923C20.1882 17.9533 20.9861 15.941 22.1321 14.6965C23.2711 13.4597 24.8673 12.8579 26.7278 12.8579C28.5884 12.8579 30.1846 13.4597 31.3236 14.6965C32.4695 15.941 33.2675 17.9533 33.2675 20.9923Z" fill="#C4C4C4" fill-opacity="0.4" stroke="#15AE08" stroke-width="2"/>
<path d="M37.4536 34.7771L40.6936 37.5897L29.7136 47.1212L22.3111 40.6953C21.8907 40.3295 21.32 40.124 20.7249 40.124C20.1297 40.124 19.559 40.3295 19.1386 40.6953L5.63865 52.4338C4.76116 53.1956 4.76116 54.4261 5.63865 55.1878C6.51615 55.9496 7.93365 55.9496 8.81115 55.1878L20.7136 44.836L28.1161 51.2619C28.9936 52.0237 30.4111 52.0237 31.2886 51.2619L43.8661 40.3632L47.1061 43.1758C47.8036 43.7813 49.0186 43.3516 49.0186 42.4922V34.0935C49.0411 33.5466 48.5461 33.1169 47.9161 33.1169H38.2636C37.2511 33.1169 36.7561 34.1717 37.4536 34.7771V34.7771Z" fill="#15AE08"/>
</svg>
